<svg width="24" height="24" viewBox="0 0 24 24" fill="none" xmlns="http://www.w3.org/2000/svg">
<rect x="2.5" y="2" width="17" height="17" rx="8" fill="white"/>
<path fill-rule="evenodd" clip-rule="evenodd" d="M17.0907 0.618345C13.4086 -0.206115 9.59027 -0.206115 5.90822 0.618345L5.51148 0.706268C4.47576 0.938222 3.52451 1.45324 2.7634 2.19412C2.00229 2.935 1.46112 3.87272 1.2 4.90313C0.266666 8.58714 0.266666 12.4463 1.2 16.1303C1.44902 17.113 1.953 18.0123 2.66084 18.737C3.36869 19.4617 4.25523 19.986 5.2306 20.2569L5.77481 23.5112C5.79218 23.6145 5.83689 23.7113 5.90428 23.7915C5.97168 23.8716 6.05929 23.9322 6.158 23.9669C6.25671 24.0016 6.3629 24.0092 6.46553 23.9888C6.56815 23.9685 6.66345 23.9209 6.74149 23.8511L9.93765 20.9872C12.3369 21.1339 14.7449 20.9417 17.0907 20.4163L17.4886 20.3284C18.5243 20.0964 19.4756 19.5814 20.2367 18.8405C20.9978 18.0996 21.539 17.1619 21.8001 16.1315C22.7333 12.4475 22.7333 8.58832 21.8001 4.9043C21.5389 3.87375 20.9975 2.93592 20.2362 2.19503C19.4749 1.45414 18.5234 0.939201 17.4874 0.70744L17.0907 0.618345ZM6.89598 4.80817C6.67847 4.77646 6.45668 4.82032 6.26751 4.93244H6.25113C5.81226 5.19035 5.41669 5.51508 5.07963 5.89725C4.79875 6.22198 4.64661 6.55022 4.60682 6.86675C4.58341 7.05432 4.5998 7.24423 4.6548 7.42359L4.67587 7.43532C4.99186 8.36496 5.40381 9.25943 5.90705 10.1011C6.55594 11.2834 7.35446 12.3768 8.28281 13.3543L8.3109 13.3942L8.35537 13.427L8.38229 13.4586L8.41506 13.4868C9.3943 14.4195 10.4884 15.2232 11.6709 15.8783C13.0226 16.6157 13.843 16.9638 14.3357 17.1092V17.1162C14.4797 17.1608 14.6108 17.1807 14.743 17.1807C15.1626 17.1497 15.5598 16.9788 15.8712 16.6954C16.2516 16.3578 16.5734 15.9603 16.8238 15.5184V15.5102C17.0591 15.0647 16.9795 14.645 16.6401 14.3601C15.9584 13.7635 15.2212 13.2335 14.4387 12.7775C13.9144 12.4927 13.3819 12.665 13.1666 12.9534L12.7066 13.5348C12.4702 13.8232 12.0419 13.7834 12.0419 13.7834L12.0302 13.7904C8.83404 12.9733 7.98087 9.73187 7.98087 9.73187C7.98087 9.73187 7.94108 9.29108 8.23717 9.066L8.81297 8.60176C9.08917 8.37668 9.2811 7.84445 8.98501 7.31926C8.5328 6.53471 8.00479 5.79652 7.40858 5.11532C7.27854 4.955 7.09618 4.84581 6.89364 4.807L6.89598 4.80817ZM12.2959 3.39906C12.1407 3.39906 11.9918 3.46082 11.8821 3.57074C11.7723 3.68067 11.7107 3.82976 11.7107 3.98521C11.7107 4.14067 11.7723 4.28976 11.8821 4.39969C11.9918 4.50961 12.1407 4.57137 12.2959 4.57137C13.7763 4.57137 15.0052 5.05553 15.9777 5.984C16.4774 6.49161 16.8671 7.093 17.1223 7.75184C17.3786 8.41185 17.4956 9.11641 17.4652 9.82214C17.462 9.89911 17.4739 9.97597 17.5003 10.0483C17.5267 10.1207 17.5671 10.1871 17.6192 10.2438C17.7243 10.3584 17.8706 10.4264 18.0258 10.4329C18.181 10.4394 18.3324 10.3839 18.4467 10.2786C18.5611 10.1733 18.629 10.0268 18.6355 9.87137C18.6718 9.00326 18.528 8.13705 18.213 7.32746C17.8967 6.51404 17.4171 5.7743 16.804 5.15401L16.7922 5.14228C15.5856 3.98756 14.0584 3.39906 12.2959 3.39906ZM12.2561 5.32633C12.1009 5.32633 11.952 5.38809 11.8423 5.49802C11.7326 5.60794 11.6709 5.75703 11.6709 5.91249C11.6709 6.06795 11.7326 6.21704 11.8423 6.32696C11.952 6.43689 12.1009 6.49864 12.2561 6.49864H12.276C13.3433 6.57484 14.1204 6.93122 14.6646 7.51621C15.2228 8.11877 15.5119 8.86788 15.4897 9.794C15.4861 9.94946 15.5443 10.1 15.6515 10.2124C15.7588 10.3249 15.9062 10.3901 16.0614 10.3936C16.2166 10.3972 16.3668 10.3389 16.4791 10.2315C16.5914 10.1241 16.6564 9.97642 16.66 9.82096C16.6881 8.60528 16.2972 7.55606 15.5224 6.71904V6.71669C14.7301 5.8656 13.6429 5.41543 12.3345 5.32751L12.3146 5.32516L12.2561 5.32633ZM12.2338 7.28995C12.1555 7.28303 12.0766 7.29199 12.0018 7.31628C11.9271 7.34058 11.8579 7.37973 11.7986 7.43138C11.7393 7.48303 11.6909 7.54612 11.6564 7.6169C11.622 7.68769 11.6021 7.7647 11.598 7.84334C11.5939 7.92198 11.6057 8.00064 11.6326 8.07462C11.6596 8.14861 11.7011 8.2164 11.7548 8.27395C11.8084 8.3315 11.8731 8.37762 11.945 8.40957C12.0168 8.44153 12.0944 8.45865 12.173 8.45992C12.6622 8.48571 12.9746 8.63342 13.1713 8.83154C13.369 9.03083 13.5165 9.35087 13.5434 9.85144C13.5449 9.9301 13.5621 10.0077 13.5942 10.0795C13.6262 10.1513 13.6723 10.216 13.7298 10.2696C13.7873 10.3232 13.855 10.3647 13.9288 10.3915C14.0026 10.4184 14.0811 10.43 14.1595 10.4259C14.238 10.4217 14.3147 10.4018 14.3853 10.3672C14.4559 10.3327 14.5188 10.2843 14.5703 10.2249C14.6218 10.1655 14.6608 10.0963 14.6851 10.0215C14.7093 9.94664 14.7183 9.86769 14.7114 9.78931C14.674 9.08593 14.4539 8.4646 14.0034 8.0074C13.5504 7.5502 12.9337 7.32747 12.2338 7.28995Z" fill="#AC51CB"/>
</svg>
