<svg width="40" height="50" viewBox="0 0 40 50" fill="none" xmlns="http://www.w3.org/2000/svg">
<path d="M39.6114 39.2229V50H0.388565L12.7786 37.0235C17.2263 32.3803 20.5743 28.2502 22.8226 24.6334C24.5821 21.8964 25.4619 19.3548 25.4619 17.0088C25.4619 14.956 24.9731 13.392 23.9956 12.3167C23.1158 11.3392 21.9184 10.8504 20.4032 10.8504C18.5948 10.8504 17.1774 11.5103 16.151 12.8299C15.0758 14.1984 14.4892 16.2023 14.3915 18.8416H1.26833C1.31721 13.3675 3.12561 8.84653 6.69355 5.27859C10.2126 1.75953 14.8314 0 20.5499 0C26.3661 0 30.9604 1.68622 34.3328 5.05865C37.5098 8.23558 39.0982 12.2434 39.0982 17.0821C39.0982 22.263 36.6789 27.1017 31.8402 31.5982L23.629 39.2229H39.6114Z" fill="#EED9F5"/>
</svg>
